<?xml version="1.0" standalone="no"?>
<!DOCTYPE svg PUBLIC "-//W3C//DTD SVG 20010904//EN"
 "http://www.w3.org/TR/2001/REC-SVG-20010904/DTD/svg10.dtd">
<svg version="1.0" xmlns="http://www.w3.org/2000/svg"
 width="500.000000pt" height="500.000000pt" viewBox="0 0 500.000000 500.000000"
 preserveAspectRatio="xMidYMid meet">

<g transform="translate(0.000000,500.000000) scale(0.100000,-0.100000)"
fill="#000000" stroke="none">
<path d="M3762 4248 c-6 -6 -12 -27 -12 -45 0 -40 -30 -73 -66 -73 -35 0 -64
-17 -64 -38 0 -26 20 -42 52 -42 38 0 78 -40 78 -78 0 -32 16 -52 41 -52 13 0
23 17 36 57 19 60 23 63 96 78 20 4 27 11 27 30 0 27 -25 45 -63 45 -32 0 -53
26 -64 80 -9 48 -35 64 -61 38z"/>
<path d="M2555 4206 c-237 -57 -382 -294 -321 -522 44 -166 180 -292 350 -326
127 -25 281 26 382 126 50 51 104 139 104 171 0 25 28 18 119 -31 694 -366
939 -1262 530 -1939 -101 -169 -261 -337 -412 -434 l-67 -44 0 -94 0 -95 58
32 c145 81 282 188 379 296 372 412 500 973 344 1504 -87 297 -291 595 -536
785 -101 78 -132 96 -278 170 l-119 60 -17 50 c-73 220 -294 345 -516 291z
m209 -180 c84 -35 145 -120 153 -215 10 -112 -40 -204 -140 -255 -63 -32 -131
-38 -206 -17 -62 18 -135 89 -161 157 -25 69 -25 109 1 179 31 82 99 144 184
166 39 10 127 2 169 -15z"/>
<path d="M1939 3851 c-521 -228 -846 -630 -956 -1181 -26 -134 -24 -423 5
-562 52 -250 165 -492 320 -688 54 -68 204 -220 217 -220 6 0 24 14 40 30 16
17 34 30 39 29 6 0 31 -32 56 -70 84 -132 233 -253 387 -316 112 -46 198 -63
323 -63 167 0 292 34 427 115 233 139 358 342 382 623 6 67 11 443 11 890 l0
772 -90 0 -89 0 -4 -872 c-2 -786 -4 -878 -20 -921 -54 -157 -173 -293 -317
-365 -252 -126 -551 -82 -768 113 -62 56 -142 173 -171 249 -23 62 -39 151
-44 249 l-3 67 88 0 88 0 0 -54 c0 -175 95 -351 234 -435 88 -53 155 -71 261
-71 99 0 172 19 249 64 62 37 143 128 177 201 59 126 58 109 59 978 l0 797
-90 0 -89 0 -3 -817 -3 -818 -24 -52 c-29 -65 -110 -143 -173 -167 -65 -25
-177 -19 -238 12 -66 35 -125 97 -156 166 -25 56 -28 74 -32 218 -4 134 -7
157 -21 160 -9 2 -126 2 -260 0 l-244 -4 6 -186 c5 -165 11 -220 34 -297 10
-35 -53 31 -139 145 -118 158 -196 326 -249 535 -20 79 -23 116 -23 295 0 181
3 216 23 295 116 458 389 794 794 979 l77 35 0 90 c0 50 -1 91 -2 90 -2 0 -41
-17 -89 -38z"/>
<path d="M3775 3668 c-25 -14 -35 -28 -35 -50 0 -24 35 -58 59 -58 49 0 70 76
29 104 -26 19 -27 19 -53 4z"/>
<path d="M2210 2470 l0 -741 88 3 87 3 3 738 2 737 -90 0 -90 0 0 -740z"/>
<path d="M1586 3098 c-9 -18 -30 -42 -47 -52 l-31 -18 31 -19 c16 -10 37 -32
46 -50 l17 -31 18 29 c10 16 29 39 43 50 l26 20 -28 21 c-15 11 -35 35 -43 52
l-16 33 -16 -35z"/>
<path d="M3532 2904 c-28 -19 -29 -67 -2 -94 41 -41 110 -13 110 44 0 58 -58
85 -108 50z"/>
<path d="M1842 2848 c-7 -7 -12 -21 -12 -32 -1 -32 -21 -52 -70 -69 -57 -19
-60 -44 -7 -62 49 -17 75 -41 79 -73 4 -33 34 -53 49 -32 5 8 12 28 16 43 7
32 38 57 86 66 37 8 46 43 12 49 -61 10 -80 27 -105 95 -10 29 -28 35 -48 15z"/>
<path d="M1440 2548 c-11 -12 -20 -31 -20 -43 0 -31 36 -65 69 -65 35 0 61 28
61 67 0 58 -69 85 -110 41z"/>
<path d="M3445 2529 c-4 -5 -4 -21 -1 -35 5 -20 12 -25 33 -22 34 4 51 31 34
52 -15 18 -56 21 -66 5z"/>
<path d="M3525 2312 c-54 -18 -85 -60 -85 -115 0 -31 7 -46 34 -73 29 -29 41
-34 81 -34 40 0 52 5 81 34 26 26 34 42 34 71 0 48 -26 91 -66 110 -34 16 -47
17 -79 7z"/>
<path d="M1822 2254 c-48 -33 -8 -117 48 -99 47 15 50 82 5 103 -32 15 -26 15
-53 -4z"/>
<path d="M1474 2085 c-4 -9 -2 -21 4 -27 16 -16 47 -5 47 17 0 26 -42 34 -51
10z"/>
<path d="M3449 1820 c-38 -22 -31 -88 12 -110 37 -20 89 12 89 56 0 48 -58 79
-101 54z"/>
<path d="M1036 1354 c-22 -21 -20 -60 4 -84 26 -26 46 -25 75 5 29 28 30 37 9
70 -19 29 -64 34 -88 9z"/>
<path d="M1266 1084 c-9 -8 -16 -28 -16 -42 0 -42 -25 -69 -69 -77 -81 -14
-79 -56 4 -83 47 -16 51 -20 61 -61 18 -75 66 -84 78 -14 9 54 18 64 72 78 39
10 50 17 52 35 4 25 -12 40 -44 40 -35 0 -71 36 -79 77 -11 61 -31 76 -59 47z"/>
</g>
</svg>
